<?xml version="1.0" encoding="UTF-8" standalone="no"?>
<!DOCTYPE svg PUBLIC "-//W3C//DTD SVG 1.1//EN" "http://www.w3.org/Graphics/SVG/1.1/DTD/svg11.dtd">
<svg width="100%" height="100%" viewBox="0 0 160 110" version="1.1" xmlns="http://www.w3.org/2000/svg" xmlns:xlink="http://www.w3.org/1999/xlink" xml:space="preserve" xmlns:serif="http://www.serif.com/" style="fill-rule:evenodd;clip-rule:evenodd;stroke-linecap:round;stroke-linejoin:round;stroke-miterlimit:10;">
    <g transform="matrix(1,0,0,1,-245.96,-534.64)">
        <text x="267.12px" y="639.6px" style="font-family:'TimesNewRomanPSMT', 'Times New Roman', serif;font-size:8.88px;">3</text>
    </g>
    <g transform="matrix(1,0,0,1,-246.96,-534.64)">
        <text x="285.12px" y="639.6px" style="font-family:'TimesNewRomanPSMT', 'Times New Roman', serif;font-size:8.88px;">5</text>
    </g>
    <g transform="matrix(1,0,0,1,-246.96,-534.64)">
        <text x="312px" y="639.6px" style="font-family:'TimesNewRomanPSMT', 'Times New Roman', serif;font-size:8.88px;">10</text>
    </g>
    <g transform="matrix(1,0,0,1,-246.96,-534.64)">
        <text x="350.16px" y="639.6px" style="font-family:'TimesNewRomanPSMT', 'Times New Roman', serif;font-size:8.88px;">16</text>
    </g>
    <g transform="matrix(1,0,0,1,-246.96,-534.64)">
        <text x="380.16px" y="639.6px" style="font-family:'TimesNewRomanPSMT', 'Times New Roman', serif;font-size:8.88px;">20</text>
    </g>
    <g transform="matrix(1,0,0,1,-244.96,-534.64)">
        <text x="251.04px" y="550.56px" style="font-family:'TimesNewRomanPSMT', 'Times New Roman', serif;font-size:8.88px;">0.5</text>
    </g>
    <g transform="matrix(1,0,0,1,-244.96,-534.64)">
        <text x="249.12px" y="626.64px" style="font-family:'TimesNewRomanPSMT', 'Times New Roman', serif;font-size:8.88px;">0.1</text>
    </g>
    <g transform="matrix(1,0,0,1,-244.96,-156.16)">
        <rect x="268.56" y="168.72" width="114" height="76.08" style="fill:none;stroke:black;stroke-width:0.96px;"/>
    </g>
    <g transform="matrix(1,0,0,1,-244.96,-197.2)">
        <clipPath id="_clip1">
            <rect x="268.08" y="226.56" width="114" height="1.68" clip-rule="nonzero"/>
        </clipPath>
        <g clip-path="url(#_clip1)">
            <path d="M153.84,227.28L496.08,227.28" style="fill:none;fill-rule:nonzero;stroke:black;stroke-width:0.96px;"/>
        </g>
    </g>
    <g transform="matrix(1,0,0,1,-244.96,-159.28)">
        <clipPath id="_clip2">
            <rect x="268.08" y="207.6" width="114" height="1.68" clip-rule="nonzero"/>
        </clipPath>
        <g clip-path="url(#_clip2)">
            <path d="M153.84,208.32L496.08,208.32" style="fill:none;fill-rule:nonzero;stroke:black;stroke-width:0.96px;"/>
        </g>
    </g>
    <g transform="matrix(1,0,0,1,-244.96,-119.44)">
        <clipPath id="_clip3">
            <rect x="268.08" y="187.68" width="114" height="1.92" clip-rule="nonzero"/>
        </clipPath>
        <g clip-path="url(#_clip3)">
            <path d="M153.84,188.4L496.08,188.4" style="fill:none;fill-rule:nonzero;stroke:black;stroke-width:0.96px;"/>
        </g>
    </g>
    <g transform="matrix(0,1,1,0,-167.2,-235.12)">
        <clipPath id="_clip4">
            <rect x="247.44" y="206.16" width="75.84" height="2.16" clip-rule="nonzero"/>
        </clipPath>
        <g clip-path="url(#_clip4)">
            <path d="M171.12,207.36L399.12,207.36" style="fill:none;fill-rule:nonzero;stroke:black;stroke-width:0.96px;"/>
        </g>
    </g>
    <g transform="matrix(0,1,1,0,-137.2,-265.12)">
        <clipPath id="_clip5">
            <rect x="277.44" y="206.16" width="75.84" height="2.16" clip-rule="nonzero"/>
        </clipPath>
        <g clip-path="url(#_clip5)">
            <path d="M201.12,207.36L429.12,207.36" style="fill:none;fill-rule:nonzero;stroke:black;stroke-width:0.96px;"/>
        </g>
    </g>
    <g transform="matrix(0,1,1,0,-99.28,-303.04)">
        <clipPath id="_clip6">
            <rect x="315.36" y="206.4" width="75.84" height="1.92" clip-rule="nonzero"/>
        </clipPath>
        <g clip-path="url(#_clip6)">
            <path d="M239.04,207.36L467.04,207.36" style="fill:none;fill-rule:nonzero;stroke:black;stroke-width:0.96px;"/>
        </g>
    </g>
</svg>
